<svg height="512" viewBox="0 0 512 512" width="512" xmlns="http://www.w3.org/2000/svg" xmlns:xlink="http://www.w3.org/1999/xlink"><linearGradient id="a" x1="-75.1116%" x2="156.774327%" y1="45.192913%" y2="56.982554%"><stop offset=".23" stop-color="#999875"/><stop offset=".56" stop-color="#9b9977"/><stop offset=".68" stop-color="#a09f7e"/><stop offset=".77" stop-color="#a9a889"/><stop offset=".84" stop-color="#b7b69a"/><stop offset=".9" stop-color="#c9c7b0"/><stop offset=".95" stop-color="#deddcb"/><stop offset=".99" stop-color="#f8f6eb"/><stop offset="1" stop-color="#fbf9ef"/></linearGradient><linearGradient id="b" x1="-19.427283%" x2="75.934693%" y1="1.794863%" y2="98.646062%"><stop offset="0" stop-color="#48a547"/><stop offset="1" stop-color="#3f9143"/></linearGradient><linearGradient id="c" x1="-12.412112%" x2="149.950218%" y1="57.364547%" y2="47.402493%"><stop offset="0" stop-color="#41a247"/><stop offset=".35" stop-color="#4ba74b"/><stop offset=".96" stop-color="#67b554"/><stop offset="1" stop-color="#69b655"/></linearGradient><g fill="none" transform="translate(159 40)"><path d="m106.820248 431.512-11.5999174-3.832s1.4750413-58.584-19.6966116-62.68c-13.9567769-16.144 2.1484298-689.52 52.860992-2.312 0 0-17.355785 8.704-20.642562 23.472s-.921901 45.352-.921901 45.352z" fill="url(#a)"/><path d="m113.07314 374.944s100.791819-66.24 77.175124-203.808c-22.742892-99.944-76.42157-132.8-82.201487-145.344-6.349091-8.872-12.7462811-24.608-12.7462811-24.608l4.2888429 278.472s-8.8662809 85.032 13.4838012 95.288z" fill="url(#b)"/><path d="m89.3281818 378.64s-94.5389256-64.352-89.09570246-177.904 72.20487606-169.392 85.20768596-179.52c8.4093388-8.944 8.7540496-12.392 9.4033884-21.216 5.9001653 12.632 4.9221488 188.688 5.5394213 209.264 2.429008 80.096-4.4411568 154.256-11.0547932 169.376z" fill="url(#c)"/></g></svg>